# xmcd CD database file
# Copyright (C) 1993-1998 Ti Kan
#
# Track frame offsets:
#  150
#  17669
#  32288
#  49368
#  66245
#  82517
#  98636
#  112664
#  130286
#  145815
#  163289
#  179938
#  202072
#  217957
#  232512
#  251114
#  271215
#
# Disc length: 3833 seconds
#
# Revision: 1
# Processed by: cddbd v1.4b41PL1 Copyright (c) Steve Scherf et al.
# Submitted via: CDWizzard Release:4.35
#
DISCID=e50ef711
DTITLE=Secret Service - Spotlight
DYEAR=1900
DGENRE=
TTITLE0=Oh Susie
TTITLE1=L.A. Goodbye
TTITLE2=Flash In The Night
TTITLE3=Ye-Si-Ca
TTITLE4=Broken Hearts
TTITLE5=Ten O'Clock Postman
TTITLE6=Dancing In Madness
TTITLE7=Fire Into Ice
TTITLE8=Like A Morning Song
TTITLE9=When The Dancer You Have Loved Walks Out The Door
TTITLE10=Jo-Anne, Jo-Anne
TTITLE11=Jupiter Sing
TTITLE12=Mrs. Marple
TTITLE13=Visions Of You
TTITLE14=When The Night Closed In
TTITLE15=Let Us Dance Just A Little Bit More
TTITLE16=Night City
EXTD=
EXTT0=
EXTT1=
EXTT2=
EXTT3=
EXTT4=
EXTT5=
EXTT6=
EXTT7=
EXTT8=
EXTT9=
EXTT10=
EXTT11=
EXTT12=
EXTT13=
EXTT14=
EXTT15=
EXTT16=
PLAYORDER=
